<svg width="21" height="20" viewBox="0 0 21 20" fill="none" xmlns="http://www.w3.org/2000/svg">
<path d="M18.8333 13.95V3.89162C18.8333 2.89162 18.0166 2.14995 17.025 2.23329H16.975C15.225 2.38329 12.5666 3.27495 11.0833 4.20829L10.9416 4.29995C10.7 4.44995 10.3 4.44995 10.0583 4.29995L9.84996 4.17495C8.36663 3.24995 5.71663 2.36662 3.96663 2.22495C2.97496 2.14162 2.16663 2.89162 2.16663 3.88329V13.95C2.16663 14.75 2.81663 15.5 3.61663 15.6L3.85829 15.6333C5.66663 15.875 8.45829 16.7916 10.0583 17.6666L10.0916 17.6833C10.3166 17.8083 10.675 17.8083 10.8916 17.6833C12.4916 16.8 15.2916 15.875 17.1083 15.6333L17.3833 15.6C18.1833 15.5 18.8333 14.75 18.8333 13.95Z" stroke="#667085" stroke-width="1.5" stroke-linecap="round" stroke-linejoin="round"/>
<path d="M10.5 4.57495V17.075" stroke="#667085" stroke-width="1.5" stroke-linecap="round" stroke-linejoin="round"/>
<path d="M6.95837 7.07495H5.08337" stroke="#667085" stroke-width="1.5" stroke-linecap="round" stroke-linejoin="round"/>
<path d="M7.58337 9.57495H5.08337" stroke="#667085" stroke-width="1.5" stroke-linecap="round" stroke-linejoin="round"/>
</svg>
