<svg width="26" height="24" viewBox="0 0 26 24" fill="none" xmlns="http://www.w3.org/2000/svg">
<path d="M0.799805 1L4.13314 1L4.7998 3.44444M4.7998 3.44444L7.46647 13.2222M4.7998 3.44444H24.7998L22.1331 13.2222H7.46647M7.46647 13.2222H6.7998C5.69524 13.2222 4.7998 14.043 4.7998 15.0556C4.7998 16.0681 5.69524 16.8889 6.7998 16.8889H22.1331M22.1331 21.7778C22.1331 22.4528 21.5362 23 20.7998 23C20.0634 23 19.4665 22.4528 19.4665 21.7778C19.4665 21.1028 20.0634 20.5556 20.7998 20.5556C21.5362 20.5556 22.1331 21.1028 22.1331 21.7778ZM8.7998 21.7778C8.7998 22.4528 8.20285 23 7.46647 23C6.73009 23 6.13314 22.4528 6.13314 21.7778C6.13314 21.1028 6.73009 20.5556 7.46647 20.5556C8.20285 20.5556 8.7998 21.1028 8.7998 21.7778Z" stroke="#A1A1A1" stroke-linecap="round"/>
</svg>
