<svg width="40" height="40" viewBox="0 0 40 40" fill="none" xmlns="http://www.w3.org/2000/svg">
<path opacity="0.4" d="M20 36.6667C29.2047 36.6667 36.6666 29.2047 36.6666 20C36.6666 10.7952 29.2047 3.33333 20 3.33333C10.7952 3.33333 3.33331 10.7952 3.33331 20C3.33331 29.2047 10.7952 36.6667 20 36.6667Z" fill="#D92D20"/>
<path d="M21.7666 20L25.6 16.1667C26.0833 15.6833 26.0833 14.8833 25.6 14.4C25.1166 13.9167 24.3166 13.9167 23.8333 14.4L20 18.2333L16.1666 14.4C15.6833 13.9167 14.8833 13.9167 14.4 14.4C13.9166 14.8833 13.9166 15.6833 14.4 16.1667L18.2333 20L14.4 23.8333C13.9166 24.3167 13.9166 25.1167 14.4 25.6C14.65 25.85 14.9666 25.9667 15.2833 25.9667C15.6 25.9667 15.9166 25.85 16.1666 25.6L20 21.7667L23.8333 25.6C24.0833 25.85 24.4 25.9667 24.7166 25.9667C25.0333 25.9667 25.35 25.85 25.6 25.6C26.0833 25.1167 26.0833 24.3167 25.6 23.8333L21.7666 20Z" fill="#D92D20"/>
</svg>
