<svg width="319" height="194" viewBox="0 0 319 194" fill="none" xmlns="http://www.w3.org/2000/svg">
<path d="M184.995 56.6348H106.645V127.934H184.995V56.6348Z" fill="#88BC1D"/>
<path d="M226.642 56.6348H184.996V127.934H226.642V56.6348Z" fill="#90C326"/>
<path d="M226.642 56.8114H184.996L199.261 37.3521C199.397 37.1658 199.576 37.0143 199.782 36.9098C199.988 36.8054 200.216 36.751 200.447 36.751H238.446C238.718 36.751 238.984 36.8263 239.216 36.9685C239.447 37.1108 239.635 37.3144 239.758 37.5568C239.881 37.7992 239.934 38.0709 239.912 38.3418C239.889 38.6127 239.793 38.8721 239.632 39.0912L226.642 56.8114Z" fill="#9FCF3D"/>
<path d="M106.839 56.8114H148.485L134.22 37.3521C134.084 37.1658 133.905 37.0143 133.699 36.9098C133.493 36.8054 133.265 36.751 133.034 36.751H95.035C94.7633 36.751 94.4968 36.8263 94.2653 36.9685C94.0337 37.1108 93.8461 37.3144 93.7233 37.5568C93.6005 37.7992 93.5472 38.0709 93.5694 38.3418C93.5916 38.6127 93.6884 38.8721 93.849 39.0912L106.839 56.8114Z" fill="#90C326"/>
<path d="M250.138 82.7942L226.643 56.8115V85.2255H249.024C249.306 85.2255 249.582 85.1446 249.819 84.9925C250.056 84.8403 250.244 84.6233 250.361 84.3672C250.479 84.1111 250.52 83.8268 250.48 83.5479C250.441 83.269 250.322 83.0074 250.138 82.7942Z" fill="#A1E020"/>
<path d="M175.362 18.3936H121.023V56.8113H175.362V18.3936Z" fill="#A1A1A1"/>
<path d="M146.605 59.1837H131.656C131.367 59.1837 131.084 59.1077 130.834 58.9634C130.584 58.8191 130.376 58.6115 130.232 58.3615C130.088 58.1116 130.012 57.8281 130.012 57.5394C130.012 57.2508 130.088 56.9673 130.232 56.7173L137.707 43.7692L145.182 30.8211C145.326 30.5712 145.533 30.3636 145.783 30.2193C146.033 30.075 146.317 29.999 146.605 29.999C146.894 29.999 147.177 30.075 147.427 30.2193C147.677 30.3636 147.885 30.5712 148.029 30.8211L155.504 43.7692L162.979 56.7173C163.123 56.9673 163.199 57.2508 163.199 57.5394C163.199 57.8281 163.123 58.1116 162.979 58.3615C162.834 58.6115 162.627 58.8191 162.377 58.9634C162.127 59.1077 161.844 59.1837 161.555 59.1837H146.605Z" fill="#DBE8EC"/>
<path d="M147.426 38.095C147.426 37.6407 147.058 37.2725 146.604 37.2725C146.15 37.2725 145.781 37.6407 145.781 38.095V50.3568C145.781 50.811 146.15 51.1793 146.604 51.1793C147.058 51.1793 147.426 50.811 147.426 50.3568V38.095Z" fill="#409CB5"/>
<path d="M148.562 54.5927C148.669 53.5112 147.879 52.5476 146.797 52.4405C145.716 52.3334 144.752 53.1233 144.645 54.2048C144.538 55.2863 145.328 56.2499 146.409 56.357C147.491 56.4641 148.455 55.6742 148.562 54.5927Z" fill="#409CB5"/>
<path d="M159.638 85.2255H85.1717C84.8901 85.2255 84.6144 85.1446 84.3774 84.9925C84.1404 84.8403 83.952 84.6233 83.8347 84.3672C83.7175 84.1112 83.6762 83.8268 83.7158 83.5479C83.7554 83.269 83.8743 83.0074 84.0582 82.7941L106.47 56.8115H184.821L160.752 84.7155C160.614 84.8755 160.443 85.0039 160.251 85.0919C160.059 85.18 159.85 85.2255 159.638 85.2255Z" fill="#A1E020"/>
</svg>
