<svg width="20" height="20" viewBox="0 0 20 20" fill="none" xmlns="http://www.w3.org/2000/svg">
<path d="M5.09167 14.5834C3.25001 12.8584 1.66669 10.4 1.66669 7.23338C1.66669 4.65838 3.74168 2.57507 6.30002 2.57507C7.81668 2.57507 9.15835 3.3084 10 4.44173C10.8417 3.3084 12.1917 2.57507 13.7 2.57507C14.6584 2.57507 15.55 2.86671 16.2917 3.37504" stroke="#667085" stroke-width="1.5" stroke-linecap="round" stroke-linejoin="round"/>
<path d="M18.1167 5.83337C18.2584 6.27504 18.3334 6.75004 18.3334 7.24171C18.3334 13.075 12.9334 16.5167 10.5167 17.35C10.2334 17.45 9.76671 17.45 9.48338 17.35C8.94171 17.1667 8.25839 16.85 7.51672 16.4084" stroke="#667085" stroke-width="1.5" stroke-linecap="round" stroke-linejoin="round"/>
<path d="M18.3334 1.66663L1.66669 18.3333" stroke="#667085" stroke-width="1.5" stroke-linecap="round" stroke-linejoin="round"/>
</svg>
