<svg width="21" height="20" viewBox="0 0 21 20" fill="none" xmlns="http://www.w3.org/2000/svg">
<path d="M8.13332 9.05829C8.04999 9.04996 7.94999 9.04996 7.85832 9.05829C5.87499 8.99163 4.29999 7.36663 4.29999 5.36663C4.29999 3.32496 5.94999 1.66663 7.99999 1.66663C10.0417 1.66663 11.7 3.32496 11.7 5.36663C11.6917 7.36663 10.1167 8.99163 8.13332 9.05829Z" stroke="#667085" stroke-width="1.5" stroke-linecap="round" stroke-linejoin="round"/>
<path d="M14.175 3.33337C15.7916 3.33337 17.0917 4.64171 17.0917 6.25004C17.0917 7.82504 15.8417 9.10837 14.2833 9.16671C14.2167 9.15837 14.1417 9.15837 14.0667 9.16671" stroke="#667085" stroke-width="1.5" stroke-linecap="round" stroke-linejoin="round"/>
<path d="M3.96666 12.1334C1.95 13.4834 1.95 15.6834 3.96666 17.025C6.25833 18.5584 10.0167 18.5584 12.3083 17.025C14.325 15.675 14.325 13.475 12.3083 12.1334C10.025 10.6084 6.26666 10.6084 3.96666 12.1334Z" stroke="#667085" stroke-width="1.5" stroke-linecap="round" stroke-linejoin="round"/>
<path d="M15.7833 16.6666C16.3833 16.5416 16.95 16.3 17.4167 15.9416C18.7167 14.9666 18.7167 13.3583 17.4167 12.3833C16.9583 12.0333 16.4 11.8 15.8083 11.6666" stroke="#667085" stroke-width="1.5" stroke-linecap="round" stroke-linejoin="round"/>
</svg>
