<svg width="56" height="48" viewBox="0 0 56 48" fill="none" xmlns="http://www.w3.org/2000/svg">
<rect width="56" height="48" rx="8" fill="black" fill-opacity="0.05"/>
<path d="M25 27.75C25 27.5511 25.079 27.3603 25.2197 27.2197C25.3603 27.079 25.5511 27 25.75 27H30.25C30.4489 27 30.6397 27.079 30.7803 27.2197C30.921 27.3603 31 27.5511 31 27.75C31 27.9489 30.921 28.1397 30.7803 28.2803C30.6397 28.421 30.4489 28.5 30.25 28.5H25.75C25.5511 28.5 25.3603 28.421 25.2197 28.2803C25.079 28.1397 25 27.9489 25 27.75ZM22 23.25C22 23.0511 22.079 22.8603 22.2197 22.7197C22.3603 22.579 22.5511 22.5 22.75 22.5H33.25C33.4489 22.5 33.6397 22.579 33.7803 22.7197C33.921 22.8603 34 23.0511 34 23.25C34 23.4489 33.921 23.6397 33.7803 23.7803C33.6397 23.921 33.4489 24 33.25 24H22.75C22.5511 24 22.3603 23.921 22.2197 23.7803C22.079 23.6397 22 23.4489 22 23.25ZM19 18.75C19 18.5511 19.079 18.3603 19.2197 18.2197C19.3603 18.079 19.5511 18 19.75 18H36.25C36.4489 18 36.6397 18.079 36.7803 18.2197C36.921 18.3603 37 18.5511 37 18.75C37 18.9489 36.921 19.1397 36.7803 19.2803C36.6397 19.421 36.4489 19.5 36.25 19.5H19.75C19.5511 19.5 19.3603 19.421 19.2197 19.2803C19.079 19.1397 19 18.9489 19 18.75Z" fill="black"/>
</svg>
